{"glyphs":{"0":{"ha":1389,"x_min":87,"x_max":1302,"o":"m 1302 260 q 1252 137 1302 188 q 1128 87 1201 87 l 260 87 q 137 137 188 87 q 87 260 87 188 l 87 781 q 137 905 87 854 q 260 955 188 955 l 1128 955 q 1252 905 1201 955 q 1302 781 1302 854 l 1302 260 m 955 295 l 955 747 q 920 781 955 781 l 469 781 q 434 747 434 781 l 434 295 q 469 260 434 260 l 920 260 q 955 295 955 260 m 781 434 l 608 434 l 608 608 l 781 608 l 781 434 z "},"1":{"ha":521,"x_min":87,"x_max":434,"o":"m 434 87 l 87 87 l 87 781 l 260 955 l 434 955 l 434 87 z "},"2":{"ha":1389,"x_min":87,"x_max":1302,"o":"m 1302 87 l 87 87 l 87 434 q 137 557 87 507 q 260 608 188 608 l 920 608 q 955 642 955 608 l 955 747 q 920 781 955 781 l 87 781 l 87 955 l 1128 955 q 1252 905 1201 955 q 1302 781 1302 854 l 1302 608 q 1252 484 1302 535 q 1128 434 1201 434 l 469 434 q 434 399 434 434 l 434 260 l 1302 260 l 1302 87 z "},"3":{"ha":1389,"x_min":87,"x_max":1302,"o":"m 1302 260 q 1252 137 1302 188 q 1128 87 1201 87 l 87 87 l 87 260 l 920 260 q 955 295 955 260 l 955 399 q 920 434 955 434 l 434 434 l 781 781 l 87 781 l 87 955 l 1302 955 l 955 608 l 1128 608 q 1252 557 1201 608 q 1302 434 1302 507 l 1302 260 z "},"4":{"ha":1389,"x_min":87,"x_max":1302,"o":"m 1302 87 l 955 87 l 955 434 l 260 434 q 137 484 188 434 q 87 608 87 535 l 87 955 l 434 955 l 434 642 q 469 608 434 608 l 955 608 l 955 955 l 1302 955 l 1302 87 z "},"5":{"ha":1389,"x_min":87,"x_max":1302,"o":"m 1302 260 q 1252 137 1302 188 q 1128 87 1201 87 l 87 87 l 87 260 l 920 260 q 955 295 955 260 l 955 399 q 920 434 955 434 l 260 434 q 137 484 188 434 q 87 608 87 535 l 87 955 l 1302 955 l 1302 781 l 434 781 l 434 642 q 469 608 434 608 l 1128 608 q 1252 557 1201 608 q 1302 434 1302 507 l 1302 260 z "},"6":{"ha":1389,"x_min":87,"x_max":1302,"o":"m 1302 260 q 1252 137 1302 188 q 1128 87 1201 87 l 260 87 q 137 137 188 87 q 87 260 87 188 l 87 781 q 137 905 87 854 q 260 955 188 955 l 1302 955 l 1302 781 l 469 781 q 434 747 434 781 l 434 608 l 1128 608 q 1252 557 1201 608 q 1302 434 1302 507 l 1302 260 m 955 295 l 955 399 q 920 434 955 434 l 434 434 l 434 295 q 469 260 434 260 l 920 260 q 955 295 955 260 z "},"7":{"ha":1389,"x_min":87,"x_max":1302,"o":"m 1302 955 l 434 87 l 87 87 l 781 781 l 87 781 l 87 955 l 1302 955 z "},"8":{"ha":1389,"x_min":87,"x_max":1302,"o":"m 1302 260 q 1252 137 1302 188 q 1128 87 1201 87 l 260 87 q 137 137 188 87 q 87 260 87 188 l 87 434 q 135 521 87 462 q 87 608 87 580 l 87 781 q 137 905 87 854 q 260 955 188 955 l 1128 955 q 1252 905 1201 955 q 1302 781 1302 854 l 1302 608 q 1253 521 1302 580 q 1302 434 1302 462 l 1302 260 m 955 642 l 955 747 q 920 781 955 781 l 469 781 q 434 747 434 781 l 434 642 q 469 608 434 608 l 920 608 q 955 642 955 608 m 955 295 l 955 399 q 920 434 955 434 l 469 434 q 434 399 434 434 l 434 295 q 469 260 434 260 l 920 260 q 955 295 955 260 z "},"9":{"ha":1389,"x_min":87,"x_max":1302,"o":"m 1302 260 q 1252 137 1302 188 q 1128 87 1201 87 l 87 87 l 87 260 l 920 260 q 955 295 955 260 l 955 434 l 260 434 q 137 484 188 434 q 87 608 87 535 l 87 781 q 137 905 87 854 q 260 955 188 955 l 1128 955 q 1252 905 1201 955 q 1302 781 1302 854 l 1302 260 m 955 608 l 955 747 q 920 781 955 781 l 469 781 q 434 747 434 781 l 434 642 q 469 608 434 608 l 955 608 z "}," ":{"ha":521,"x_min":0,"x_max":0,"o":""},"!":{"ha":521,"x_min":87,"x_max":434,"o":"m 434 347 l 87 347 l 87 955 l 434 955 l 434 347 m 434 87 l 87 87 l 87 260 l 434 260 l 434 87 z "},"#":{"ha":1389,"x_min":0,"x_max":1389,"o":"m 1389 0 l 0 0 l 0 1042 l 1389 1042 l 1389 0 m 1302 260 l 1302 781 l 1042 521 l 1302 260 m 1302 87 l 868 521 l 1302 955 l 955 955 l 694 694 l 434 955 l 87 955 l 521 521 l 87 87 l 434 87 l 694 347 l 955 87 l 1302 87 m 347 521 l 87 781 l 87 260 l 347 521 z "},",":{"ha":521,"x_min":87,"x_max":434,"o":"m 434 87 l 347 0 l 260 0 l 260 87 l 87 87 l 87 260 l 434 260 l 434 87 z "},".":{"ha":521,"x_min":87,"x_max":434,"o":"m 434 87 l 87 87 l 87 260 l 434 260 l 434 87 z "},":":{"ha":521,"x_min":87,"x_max":434,"o":"m 434 781 l 87 781 l 87 955 l 434 955 l 434 781 m 434 87 l 87 87 l 87 260 l 434 260 l 434 87 z "},";":{"ha":521,"x_min":87,"x_max":434,"o":"m 434 781 l 87 781 l 87 955 l 434 955 l 434 781 m 434 87 l 347 0 l 260 0 l 260 87 l 87 87 l 87 260 l 434 260 l 434 87 z "},"?":{"ha":1042,"x_min":87,"x_max":955,"o":"m 955 608 q 905 484 955 535 q 781 434 854 434 l 469 434 q 434 399 434 434 l 434 347 l 87 347 l 87 434 q 137 557 87 507 q 260 608 188 608 l 573 608 q 608 642 608 608 l 608 747 q 573 781 608 781 l 87 781 l 87 955 l 781 955 q 905 905 854 955 q 955 781 955 854 l 955 608 m 434 87 l 87 87 l 87 260 l 434 260 l 434 87 z "},"A":{"ha":1389,"x_min":87,"x_max":1302,"o":"m 1302 87 l 955 87 l 955 434 l 434 434 l 434 87 l 87 87 l 87 781 q 137 905 87 854 q 260 955 188 955 l 1128 955 q 1252 905 1201 955 q 1302 781 1302 854 l 1302 87 m 955 608 l 955 747 q 920 781 955 781 l 469 781 q 434 747 434 781 l 434 608 l 955 608 z "},"B":{"ha":1389,"x_min":87,"x_max":1302,"o":"m 1302 260 q 1252 137 1302 188 q 1128 87 1201 87 l 87 87 l 87 955 l 1128 955 q 1252 905 1201 955 q 1302 781 1302 854 l 1302 608 q 1253 521 1302 580 q 1302 434 1302 462 l 1302 260 m 955 642 l 955 747 q 920 781 955 781 l 434 781 l 434 608 l 920 608 q 955 642 955 608 m 955 295 l 955 399 q 920 434 955 434 l 434 434 l 434 260 l 920 260 q 955 295 955 260 z "},"C":{"ha":1389,"x_min":87,"x_max":1302,"o":"m 1302 87 l 260 87 q 137 137 188 87 q 87 260 87 188 l 87 781 q 137 905 87 854 q 260 955 188 955 l 1302 955 l 1302 781 l 469 781 q 434 747 434 781 l 434 295 q 469 260 434 260 l 1302 260 l 1302 87 z "},"D":{"ha":1389,"x_min":87,"x_max":1302,"o":"m 1302 260 q 1252 137 1302 188 q 1128 87 1201 87 l 87 87 l 87 955 l 1128 955 q 1252 905 1201 955 q 1302 781 1302 854 l 1302 260 m 955 295 l 955 747 q 920 781 955 781 l 434 781 l 434 260 l 920 260 q 955 295 955 260 z "},"E":{"ha":1389,"x_min":87,"x_max":1302,"o":"m 1302 87 l 87 87 l 87 955 l 1302 955 l 1302 781 l 434 781 l 434 608 l 781 608 l 781 434 l 434 434 l 434 260 l 1302 260 l 1302 87 z "},"F":{"ha":1389,"x_min":87,"x_max":1302,"o":"m 1302 781 l 434 781 l 434 608 l 781 608 l 781 434 l 434 434 l 434 87 l 87 87 l 87 955 l 1302 955 l 1302 781 z "},"G":{"ha":1389,"x_min":87,"x_max":1302,"o":"m 1302 87 l 260 87 q 137 137 188 87 q 87 260 87 188 l 87 781 q 137 905 87 854 q 260 955 188 955 l 1302 955 l 1302 781 l 469 781 q 434 747 434 781 l 434 295 q 469 260 434 260 l 955 260 l 955 434 l 608 434 l 608 608 l 1302 608 l 1302 87 z "},"H":{"ha":1389,"x_min":87,"x_max":1302,"o":"m 1302 87 l 955 87 l 955 434 l 434 434 l 434 87 l 87 87 l 87 955 l 434 955 l 434 608 l 955 608 l 955 955 l 1302 955 l 1302 87 z "},"I":{"ha":521,"x_min":87,"x_max":434,"o":"m 434 87 l 87 87 l 87 955 l 434 955 l 434 87 z "},"J":{"ha":1389,"x_min":87,"x_max":1302,"o":"m 1302 260 q 1252 137 1302 188 q 1128 87 1201 87 l 87 87 l 87 260 l 920 260 q 955 295 955 260 l 955 955 l 1302 955 l 1302 260 z "},"K":{"ha":1389,"x_min":87,"x_max":1302,"o":"m 1302 87 l 955 87 l 521 521 l 955 955 l 1302 955 l 868 521 l 1302 87 m 434 87 l 87 87 l 87 955 l 434 955 l 434 87 z "},"L":{"ha":1389,"x_min":87,"x_max":1302,"o":"m 1302 87 l 87 87 l 87 955 l 434 955 l 434 260 l 1302 260 l 1302 87 z "},"M":{"ha":1563,"x_min":87,"x_max":1476,"o":"m 1476 87 l 1128 87 l 1128 608 l 781 260 l 434 608 l 434 87 l 87 87 l 87 955 l 434 955 l 781 608 l 1128 955 l 1476 955 l 1476 87 z "},"N":{"ha":1389,"x_min":87,"x_max":1302,"o":"m 1302 87 l 955 87 l 434 608 l 434 87 l 87 87 l 87 955 l 434 955 l 955 434 l 955 955 l 1302 955 l 1302 87 z "},"O":{"ha":1389,"x_min":87,"x_max":1302,"o":"m 1302 260 q 1252 137 1302 188 q 1128 87 1201 87 l 260 87 q 137 137 188 87 q 87 260 87 188 l 87 781 q 137 905 87 854 q 260 955 188 955 l 1128 955 q 1252 905 1201 955 q 1302 781 1302 854 l 1302 260 m 955 295 l 955 747 q 920 781 955 781 l 469 781 q 434 747 434 781 l 434 295 q 469 260 434 260 l 920 260 q 955 295 955 260 z "},"P":{"ha":1389,"x_min":87,"x_max":1302,"o":"m 1302 608 q 1252 484 1302 535 q 1128 434 1201 434 l 434 434 l 434 87 l 87 87 l 87 955 l 1128 955 q 1252 905 1201 955 q 1302 781 1302 854 l 1302 608 m 955 642 l 955 747 q 920 781 955 781 l 434 781 l 434 608 l 920 608 q 955 642 955 608 z "},"Q":{"ha":1389,"x_min":87,"x_max":1302,"o":"m 1302 260 q 1252 137 1302 188 q 1128 87 1201 87 l 260 87 q 137 137 188 87 q 87 260 87 188 l 87 781 q 137 905 87 854 q 260 955 188 955 l 1128 955 q 1252 905 1201 955 q 1302 781 1302 854 l 1302 260 m 955 295 l 955 747 q 920 781 955 781 l 469 781 q 434 747 434 781 l 434 295 q 469 260 434 260 l 608 260 l 608 434 l 781 434 l 781 260 l 920 260 q 955 295 955 260 z "},"R":{"ha":1389,"x_min":87,"x_max":1302,"o":"m 1302 87 l 955 87 l 608 434 l 434 434 l 434 87 l 87 87 l 87 955 l 1128 955 q 1252 905 1201 955 q 1302 781 1302 854 l 1302 608 q 1252 484 1302 535 q 1128 434 1201 434 l 955 434 l 1302 87 m 955 642 l 955 747 q 920 781 955 781 l 434 781 l 434 608 l 920 608 q 955 642 955 608 z "},"S":{"ha":1389,"x_min":87,"x_max":1302,"o":"m 1302 260 q 1252 137 1302 188 q 1128 87 1201 87 l 87 87 l 87 260 l 920 260 q 955 295 955 260 l 955 399 q 920 434 955 434 l 260 434 q 137 484 188 434 q 87 608 87 535 l 87 781 q 137 905 87 854 q 260 955 188 955 l 1302 955 l 1302 781 l 469 781 q 434 747 434 781 l 434 642 q 469 608 434 608 l 1128 608 q 1252 557 1201 608 q 1302 434 1302 507 l 1302 260 z "},"T":{"ha":1389,"x_min":87,"x_max":1302,"o":"m 1302 781 l 868 781 l 868 87 l 521 87 l 521 781 l 87 781 l 87 955 l 1302 955 l 1302 781 z "},"U":{"ha":1389,"x_min":87,"x_max":1302,"o":"m 1302 260 q 1252 137 1302 188 q 1128 87 1201 87 l 260 87 q 137 137 188 87 q 87 260 87 188 l 87 955 l 434 955 l 434 295 q 469 260 434 260 l 920 260 q 955 295 955 260 l 955 955 l 1302 955 l 1302 260 z "},"V":{"ha":1389,"x_min":87,"x_max":1302,"o":"m 1302 521 l 868 87 l 521 87 l 87 521 l 87 955 l 434 955 l 434 521 l 694 260 l 955 521 l 955 955 l 1302 955 l 1302 521 z "},"W":{"ha":1563,"x_min":87,"x_max":1476,"o":"m 1476 87 l 1128 87 l 781 434 l 434 87 l 87 87 l 87 955 l 434 955 l 434 434 l 781 781 l 1128 434 l 1128 955 l 1476 955 l 1476 87 z "},"X":{"ha":1389,"x_min":87,"x_max":1302,"o":"m 1302 87 l 955 87 l 694 347 l 434 87 l 87 87 l 521 521 l 87 955 l 434 955 l 694 694 l 955 955 l 1302 955 l 868 521 l 1302 87 z "},"Y":{"ha":1389,"x_min":87,"x_max":1302,"o":"m 1302 955 l 868 521 l 868 87 l 521 87 l 521 521 l 87 955 l 434 955 l 694 694 l 955 955 l 1302 955 z "},"Z":{"ha":1389,"x_min":87,"x_max":1302,"o":"m 1302 87 l 87 87 l 781 781 l 87 781 l 87 955 l 1302 955 l 608 260 l 1302 260 l 1302 87 z "},"`":{"ha":521,"x_min":87,"x_max":434,"o":"m 434 781 l 347 694 l 260 694 l 260 781 l 87 781 l 87 955 l 434 955 l 434 781 z "},"a":{"ha":1389,"x_min":87,"x_max":1302,"o":"m 1302 87 l 955 87 l 955 434 l 434 434 l 434 87 l 87 87 l 87 781 q 137 905 87 854 q 260 955 188 955 l 1128 955 q 1252 905 1201 955 q 1302 781 1302 854 l 1302 87 m 955 608 l 955 747 q 920 781 955 781 l 469 781 q 434 747 434 781 l 434 608 l 955 608 z "},"b":{"ha":1389,"x_min":87,"x_max":1302,"o":"m 1302 260 q 1252 137 1302 188 q 1128 87 1201 87 l 87 87 l 87 955 l 1128 955 q 1252 905 1201 955 q 1302 781 1302 854 l 1302 608 q 1253 521 1302 580 q 1302 434 1302 462 l 1302 260 m 955 642 l 955 747 q 920 781 955 781 l 434 781 l 434 608 l 920 608 q 955 642 955 608 m 955 295 l 955 399 q 920 434 955 434 l 434 434 l 434 260 l 920 260 q 955 295 955 260 z "},"c":{"ha":1389,"x_min":87,"x_max":1302,"o":"m 1302 87 l 260 87 q 137 137 188 87 q 87 260 87 188 l 87 781 q 137 905 87 854 q 260 955 188 955 l 1302 955 l 1302 781 l 469 781 q 434 747 434 781 l 434 295 q 469 260 434 260 l 1302 260 l 1302 87 z "},"d":{"ha":1389,"x_min":87,"x_max":1302,"o":"m 1302 260 q 1252 137 1302 188 q 1128 87 1201 87 l 87 87 l 87 955 l 1128 955 q 1252 905 1201 955 q 1302 781 1302 854 l 1302 260 m 955 295 l 955 747 q 920 781 955 781 l 434 781 l 434 260 l 920 260 q 955 295 955 260 z "},"e":{"ha":1389,"x_min":87,"x_max":1302,"o":"m 1302 87 l 87 87 l 87 955 l 1302 955 l 1302 781 l 434 781 l 434 608 l 781 608 l 781 434 l 434 434 l 434 260 l 1302 260 l 1302 87 z "},"f":{"ha":1389,"x_min":87,"x_max":1302,"o":"m 1302 781 l 434 781 l 434 608 l 781 608 l 781 434 l 434 434 l 434 87 l 87 87 l 87 955 l 1302 955 l 1302 781 z "},"g":{"ha":1389,"x_min":87,"x_max":1302,"o":"m 1302 87 l 260 87 q 137 137 188 87 q 87 260 87 188 l 87 781 q 137 905 87 854 q 260 955 188 955 l 1302 955 l 1302 781 l 469 781 q 434 747 434 781 l 434 295 q 469 260 434 260 l 955 260 l 955 434 l 608 434 l 608 608 l 1302 608 l 1302 87 z "},"h":{"ha":1389,"x_min":87,"x_max":1302,"o":"m 1302 87 l 955 87 l 955 434 l 434 434 l 434 87 l 87 87 l 87 955 l 434 955 l 434 608 l 955 608 l 955 955 l 1302 955 l 1302 87 z "},"i":{"ha":521,"x_min":87,"x_max":434,"o":"m 434 87 l 87 87 l 87 955 l 434 955 l 434 87 z "},"j":{"ha":1389,"x_min":87,"x_max":1302,"o":"m 1302 260 q 1252 137 1302 188 q 1128 87 1201 87 l 87 87 l 87 260 l 920 260 q 955 295 955 260 l 955 955 l 1302 955 l 1302 260 z "},"k":{"ha":1389,"x_min":87,"x_max":1302,"o":"m 1302 87 l 955 87 l 521 521 l 955 955 l 1302 955 l 868 521 l 1302 87 m 434 87 l 87 87 l 87 955 l 434 955 l 434 87 z "},"l":{"ha":1389,"x_min":87,"x_max":1302,"o":"m 1302 87 l 87 87 l 87 955 l 434 955 l 434 260 l 1302 260 l 1302 87 z "},"m":{"ha":1563,"x_min":87,"x_max":1476,"o":"m 1476 87 l 1128 87 l 1128 608 l 781 260 l 434 608 l 434 87 l 87 87 l 87 955 l 434 955 l 781 608 l 1128 955 l 1476 955 l 1476 87 z "},"n":{"ha":1389,"x_min":87,"x_max":1302,"o":"m 1302 87 l 955 87 l 434 608 l 434 87 l 87 87 l 87 955 l 434 955 l 955 434 l 955 955 l 1302 955 l 1302 87 z "},"o":{"ha":1389,"x_min":87,"x_max":1302,"o":"m 1302 260 q 1252 137 1302 188 q 1128 87 1201 87 l 260 87 q 137 137 188 87 q 87 260 87 188 l 87 781 q 137 905 87 854 q 260 955 188 955 l 1128 955 q 1252 905 1201 955 q 1302 781 1302 854 l 1302 260 m 955 295 l 955 747 q 920 781 955 781 l 469 781 q 434 747 434 781 l 434 295 q 469 260 434 260 l 920 260 q 955 295 955 260 z "},"p":{"ha":1389,"x_min":87,"x_max":1302,"o":"m 1302 608 q 1252 484 1302 535 q 1128 434 1201 434 l 434 434 l 434 87 l 87 87 l 87 955 l 1128 955 q 1252 905 1201 955 q 1302 781 1302 854 l 1302 608 m 955 642 l 955 747 q 920 781 955 781 l 434 781 l 434 608 l 920 608 q 955 642 955 608 z "},"q":{"ha":1389,"x_min":87,"x_max":1302,"o":"m 1302 260 q 1252 137 1302 188 q 1128 87 1201 87 l 260 87 q 137 137 188 87 q 87 260 87 188 l 87 781 q 137 905 87 854 q 260 955 188 955 l 1128 955 q 1252 905 1201 955 q 1302 781 1302 854 l 1302 260 m 955 295 l 955 747 q 920 781 955 781 l 469 781 q 434 747 434 781 l 434 295 q 469 260 434 260 l 608 260 l 608 434 l 781 434 l 781 260 l 920 260 q 955 295 955 260 z "},"r":{"ha":1389,"x_min":87,"x_max":1302,"o":"m 1302 87 l 955 87 l 608 434 l 434 434 l 434 87 l 87 87 l 87 955 l 1128 955 q 1252 905 1201 955 q 1302 781 1302 854 l 1302 608 q 1252 484 1302 535 q 1128 434 1201 434 l 955 434 l 1302 87 m 955 642 l 955 747 q 920 781 955 781 l 434 781 l 434 608 l 920 608 q 955 642 955 608 z "},"s":{"ha":1389,"x_min":87,"x_max":1302,"o":"m 1302 260 q 1252 137 1302 188 q 1128 87 1201 87 l 87 87 l 87 260 l 920 260 q 955 295 955 260 l 955 399 q 920 434 955 434 l 260 434 q 137 484 188 434 q 87 608 87 535 l 87 781 q 137 905 87 854 q 260 955 188 955 l 1302 955 l 1302 781 l 469 781 q 434 747 434 781 l 434 642 q 469 608 434 608 l 1128 608 q 1252 557 1201 608 q 1302 434 1302 507 l 1302 260 z "},"t":{"ha":1389,"x_min":87,"x_max":1302,"o":"m 1302 781 l 868 781 l 868 87 l 521 87 l 521 781 l 87 781 l 87 955 l 1302 955 l 1302 781 z "},"u":{"ha":1389,"x_min":87,"x_max":1302,"o":"m 1302 260 q 1252 137 1302 188 q 1128 87 1201 87 l 260 87 q 137 137 188 87 q 87 260 87 188 l 87 955 l 434 955 l 434 295 q 469 260 434 260 l 920 260 q 955 295 955 260 l 955 955 l 1302 955 l 1302 260 z "},"v":{"ha":1389,"x_min":87,"x_max":1302,"o":"m 1302 521 l 868 87 l 521 87 l 87 521 l 87 955 l 434 955 l 434 521 l 694 260 l 955 521 l 955 955 l 1302 955 l 1302 521 z "},"w":{"ha":1563,"x_min":87,"x_max":1476,"o":"m 1476 87 l 1128 87 l 781 434 l 434 87 l 87 87 l 87 955 l 434 955 l 434 434 l 781 781 l 1128 434 l 1128 955 l 1476 955 l 1476 87 z "},"x":{"ha":1389,"x_min":87,"x_max":1302,"o":"m 1302 87 l 955 87 l 694 347 l 434 87 l 87 87 l 521 521 l 87 955 l 434 955 l 694 694 l 955 955 l 1302 955 l 868 521 l 1302 87 z "},"y":{"ha":1389,"x_min":87,"x_max":1302,"o":"m 1302 955 l 868 521 l 868 87 l 521 87 l 521 521 l 87 955 l 434 955 l 694 694 l 955 955 l 1302 955 z "},"z":{"ha":1389,"x_min":87,"x_max":1302,"o":"m 1302 87 l 87 87 l 781 781 l 87 781 l 87 955 l 1302 955 l 608 260 l 1302 260 l 1302 87 z "}}}
